<svg width="390" height="119" viewBox="0 0 390 119" fill="none" xmlns="http://www.w3.org/2000/svg">
<g clip-path="url(#clip0_1_4)">
<path d="M113.757 86.7614C111.081 86.7614 108.852 88.4337 107.96 90.6633L78.9744 84.8662C78.9744 84.6432 78.9744 84.5318 78.9744 84.3088C78.9744 83.5284 78.8629 82.748 78.6399 81.9677L94.2475 75.1672C95.8082 77.7313 98.5953 79.515 101.828 79.515C106.734 79.515 110.747 75.5017 110.747 70.5964C110.747 67.029 108.629 63.9075 105.507 62.5697L107.625 55.3233C107.848 55.3233 108.071 55.4348 108.294 55.4348C109.409 55.4348 110.524 54.9888 111.304 54.2085C113.088 52.5362 113.2 49.7492 111.527 47.9654C110.747 47.0736 109.521 46.6276 108.294 46.6276C107.179 46.6276 106.065 47.0736 105.284 47.854C104.392 48.6343 103.946 49.7492 103.946 50.9755C103.946 52.2018 104.281 53.3166 105.173 54.097C105.619 54.5429 106.065 54.8774 106.622 55.1003L104.615 62.2352C103.724 62.0123 102.832 61.7893 101.94 61.7893C99.4872 61.7893 97.2575 62.7926 95.6968 64.3534L93.4671 62.1237C95.3623 59.7826 95.3623 56.3266 93.2441 54.097C92.1293 52.8707 90.4571 52.2018 88.7848 52.2018C87.2241 52.2018 85.7748 52.7592 84.66 53.874C83.9911 54.5429 83.4337 55.3233 83.0992 56.2152L73.7347 54.6544L74.961 37.0401C77.971 36.7057 80.3122 34.1416 80.3122 31.0201C80.3122 27.6756 77.6366 25 74.2921 25C70.9476 25 68.272 27.6756 68.272 31.0201C68.272 33.8071 70.1672 36.2598 72.8428 36.9287L71.6165 54.32L56.6778 51.6444C56.5663 50.641 56.2319 49.7492 55.563 48.9688C54.7826 48.0769 53.5563 47.631 52.33 47.631C51.4381 47.631 50.5463 47.9654 49.7659 48.4114L42.408 40.3846C43.0769 39.6042 43.5229 38.6009 43.5229 37.5975C43.5229 35.1449 41.5162 33.1382 39.0635 33.1382C36.6109 33.1382 34.6042 35.1449 34.6042 37.5975C34.6042 40.0502 36.6109 42.0569 39.0635 42.0569C40.0669 42.0569 40.8473 41.7224 41.6276 41.2765L48.9855 49.3032C47.6477 50.9755 47.5362 53.3166 48.9855 54.9888L42.1851 65.9142C41.1817 65.4682 40.0669 65.2453 38.9521 65.2453C36.9454 65.2453 34.9387 66.0256 33.4894 67.3634C33.155 67.6979 32.8205 68.0323 32.5975 68.3668L28.4727 65.6912C28.8071 65.1338 28.9186 64.4649 28.9186 63.796C28.9186 61.3434 26.9119 59.3367 24.4593 59.3367C22.0067 59.3367 20 61.3434 20 63.796C20 66.2486 22.0067 68.2553 24.4593 68.2553C25.7971 68.2553 27.0234 67.5864 27.8038 66.6945L31.9287 69.3701C30.2564 72.2687 30.7023 76.1706 33.0435 78.7347C33.3779 79.0691 33.6009 79.2921 33.9353 79.515L30.3679 84.5318C29.5875 84.1973 28.6957 83.9744 27.8038 83.9744C24.4593 83.9744 21.6722 86.6499 21.6722 90.1059C21.6722 93.5619 24.3478 96.2375 27.8038 96.2375C31.2598 96.2375 33.9353 93.5619 33.9353 90.1059C33.9353 88.5452 33.2664 86.9844 32.2631 85.981L36.0535 80.8528C36.9454 81.1873 37.9487 81.4103 39.0635 81.4103C40.4013 81.4103 41.7391 81.0758 42.854 80.4069L51.2152 93.1159C50.2118 93.8963 49.6544 95.1226 49.6544 96.4604C49.6544 98.913 51.6611 100.92 54.1137 100.92C56.5663 100.92 58.573 98.913 58.573 96.4604C58.573 94.0078 56.5663 92.0011 54.1137 92.0011C53.4448 92.0011 52.7759 92.2241 52.2185 92.447L43.8573 79.515C44.0803 79.2921 44.3032 79.1806 44.5262 78.9576C47.7592 75.9476 47.8707 70.9309 44.8606 67.6979C44.6377 67.4749 44.4147 67.2519 44.0803 67.029L50.7692 56.1037C51.2152 56.3266 51.7726 56.4381 52.2185 56.4381C53.3333 56.4381 54.4482 55.9922 55.2285 55.2118C55.6745 54.7659 56.0089 54.32 56.2319 53.874L71.1706 56.4381L70.0557 75.8361C68.272 75.9476 66.7113 76.6165 65.3735 77.6198L63.2553 75.2787C63.9242 74.4983 64.3701 73.495 64.3701 72.3802C64.3701 69.9275 62.3634 67.9208 59.9108 67.9208C57.4582 67.9208 55.4515 69.9275 55.4515 72.3802C55.4515 74.8328 57.4582 76.8395 59.9108 76.8395C60.8027 76.8395 61.6945 76.505 62.4749 76.0591L64.5931 78.4002C63.1438 79.961 62.2519 81.9677 62.2519 84.3088C62.2519 88.8796 65.8194 92.5585 70.2787 92.7815L70.6132 106.382C67.6031 106.717 65.262 109.281 65.262 112.402C65.262 115.747 67.9376 118.423 71.2821 118.423C74.6265 118.423 77.3021 115.747 77.3021 112.402C77.3021 109.169 74.8495 106.605 71.6165 106.382L71.2821 92.7815C74.6265 92.447 77.4136 90.2174 78.5284 87.0959L107.514 92.893V93.0045C107.514 96.4604 110.301 99.2475 113.757 99.2475C117.213 99.2475 120 96.4604 120 93.0045C120 89.5485 117.101 86.7614 113.757 86.7614ZM106.845 49.3032C107.291 48.9688 107.737 48.7458 108.294 48.7458C108.852 48.7458 109.521 48.9688 109.855 49.4147C110.635 50.3066 110.635 51.6444 109.744 52.5362C108.852 53.3166 107.402 53.3166 106.622 52.4247C106.176 51.9788 106.065 51.4214 106.065 50.864C106.065 50.3066 106.399 49.6377 106.845 49.3032ZM24.5708 66.0256C23.3445 66.0256 22.3411 65.0223 22.3411 63.796C22.3411 62.5697 23.3445 61.5663 24.5708 61.5663C25.7971 61.5663 26.8004 62.5697 26.8004 63.796C26.8004 65.0223 25.7971 66.0256 24.5708 66.0256ZM27.9153 93.7848C25.7971 93.7848 24.0134 92.0011 24.0134 89.8829C24.0134 87.7648 25.7971 85.981 27.9153 85.981C30.0334 85.981 31.8172 87.7648 31.8172 89.8829C31.8172 92.0011 30.0334 93.7848 27.9153 93.7848ZM56.2319 96.5719C56.2319 97.7982 55.2285 98.8016 54.0022 98.8016C52.7759 98.8016 51.7726 97.7982 51.7726 96.5719C51.7726 95.3456 52.7759 94.3422 54.0022 94.3422C55.2285 94.3422 56.2319 95.3456 56.2319 96.5719ZM42.9654 77.3969C41.8506 78.4002 40.5128 78.9576 39.0635 78.9576C37.5028 78.9576 35.942 78.2887 34.8272 77.1739C32.709 74.8328 32.8205 71.2653 35.0502 69.0357C36.165 68.0323 37.5028 67.4749 38.9521 67.4749C40.5128 67.4749 42.0736 68.1438 43.1884 69.2586C45.4181 71.5998 45.3066 75.2787 42.9654 77.3969ZM39.0635 39.7157C37.8372 39.7157 36.8339 38.7124 36.8339 37.4861C36.8339 36.2598 37.8372 35.2564 39.0635 35.2564C40.2899 35.2564 41.2932 36.2598 41.2932 37.4861C41.1817 38.7124 40.2899 39.7157 39.0635 39.7157ZM53.8907 53.6511C52.9989 54.4314 51.5496 54.4314 50.7692 53.5396C49.9889 52.6477 49.9888 51.3099 50.8807 50.4181C51.3266 50.0836 51.7726 49.8606 52.33 49.8606C52.8874 49.8606 53.5563 50.0836 53.8907 50.5295C54.7826 51.4214 54.6711 52.7592 53.8907 53.6511ZM101.828 63.9075C105.507 63.9075 108.517 66.9175 108.517 70.5964C108.517 74.2754 105.507 77.2854 101.828 77.2854C98.1494 77.2854 95.1394 74.2754 95.1394 70.5964C95.1394 66.9175 98.1494 63.9075 101.828 63.9075ZM86.1093 55.4348C86.7782 54.7659 87.7815 54.4314 88.7848 54.4314C89.8997 54.4314 90.903 54.8774 91.5719 55.6577C93.0212 57.2185 92.9097 59.6711 91.3489 61.1204C90.68 61.7893 89.6767 62.1237 88.6733 62.1237C87.5585 62.1237 86.5552 61.6778 85.8863 60.8974C84.437 59.2252 84.5485 56.8841 86.1093 55.4348ZM82.6533 58.3333C82.6533 59.7826 83.2107 61.2319 84.3255 62.3467C85.4404 63.573 87.1126 64.2419 88.7848 64.2419C90.2341 64.2419 91.5719 63.6845 92.6867 62.7926L94.9164 65.0223C93.8016 66.4716 93.0212 68.3668 93.0212 70.485C93.0212 71.3768 93.1327 72.1572 93.3556 73.049L77.7481 79.8495C76.5217 77.8428 74.5151 76.3935 72.1739 75.9476L73.5117 56.6611L82.6533 58.3333ZM70.2787 30.7971C70.2787 28.6789 71.9509 27.0067 74.0691 27.0067C76.1873 27.0067 77.8595 28.6789 77.8595 30.7971C77.8595 32.9153 76.1873 34.5875 74.0691 34.5875C71.9509 34.5875 70.2787 32.9153 70.2787 30.7971ZM59.9108 74.6098C58.6845 74.6098 57.6812 73.6065 57.6812 72.3802C57.6812 71.1538 58.6845 70.1505 59.9108 70.1505C61.1371 70.1505 62.1405 71.1538 62.1405 72.3802C62.1405 73.6065 61.1371 74.6098 59.9108 74.6098ZM75.0725 112.402C75.0725 114.521 73.4002 116.193 71.2821 116.193C69.1639 116.193 67.4916 114.521 67.4916 112.402C67.4916 110.284 69.1639 108.612 71.2821 108.612C73.4002 108.612 75.0725 110.284 75.0725 112.402ZM70.6132 90.4404C67.1572 90.4404 64.3701 87.6533 64.3701 84.1973C64.3701 80.7414 67.1572 77.9543 70.6132 77.9543C74.0691 77.9543 76.7447 80.8528 76.7447 84.3088C76.7447 87.7648 73.9576 90.4404 70.6132 90.4404ZM113.757 96.9063C111.527 96.9063 109.744 95.1226 109.744 92.893C109.744 90.6633 111.527 88.8796 113.757 88.8796C115.987 88.8796 117.77 90.6633 117.77 92.893C117.77 95.1226 115.875 96.9063 113.757 96.9063Z" fill="#F25D9C"/>
<path d="M155.253 26.6385C163.127 26.6385 167.88 31.1078 167.88 39.4081V48.3468C167.88 55.9376 163.198 61.0454 155.253 61.0454H149.293V72.8218C149.293 73.1765 149.01 73.4603 148.655 73.4603H140.497C140.213 73.4603 140 73.1765 140 72.8218V27.277C140 26.9222 140.213 26.6385 140.497 26.6385H155.253ZM158.587 46.2185V41.5363C158.587 36.6413 156.317 36.1447 151.351 36.1447H149.293V51.752H151.351C155.253 51.752 158.587 51.0426 158.587 46.2185ZM163.624 47.8502V38.9824C163.624 31.1788 157.594 30.5403 154.33 30.5403H144.753C144.611 30.5403 144.327 30.7531 144.327 30.9659V69.1328C144.327 69.6294 145.179 69.6294 145.179 69.1328V57.0726H153.692C159.935 57.0726 163.624 54.8734 163.624 47.8502ZM145.179 31.4625H154.33C162.205 31.4625 162.701 36.6413 162.701 38.9824V47.8502C162.701 55.0863 158.161 56.0795 153.692 56.0795H145.179V31.4625ZM178.451 73.4603C178.096 73.4603 177.883 73.1765 177.883 72.8218V27.277C177.883 26.9222 178.096 26.6385 178.451 26.6385H186.538C186.893 26.6385 187.177 26.9222 187.177 27.277V72.8218C187.177 73.1765 186.893 73.4603 186.538 73.4603H178.451ZM182.14 30.895V69.1328C182.14 69.7713 182.92 69.7713 182.92 69.1328V30.895C182.92 30.3984 182.14 30.3984 182.14 30.895ZM219.597 27.277C219.597 26.9222 219.881 26.6385 220.236 26.6385H228.394C228.749 26.6385 229.032 26.9222 229.032 27.277V72.8218C229.032 73.1765 228.749 73.4603 228.394 73.4603H220.519C220.236 73.4603 219.952 73.3184 219.881 73.1056L209.523 49.7656V72.8218C209.523 73.1765 209.239 73.4603 208.885 73.4603H200.797C200.443 73.4603 200.23 73.1765 200.23 72.8218V27.277C200.23 26.9222 200.443 26.6385 200.797 26.6385H209.169C209.452 26.6385 209.594 26.8513 209.665 26.9932L219.597 49.9075V27.277ZM224.705 69.2037V30.895C224.705 30.3984 223.783 30.2565 223.783 30.895V67.3592L205.267 30.7531C205.054 30.4694 204.486 30.4694 204.486 30.895V69.1328C204.486 69.7713 205.338 69.7713 205.338 69.1328V32.7395L223.783 69.2747C224.066 69.7713 224.705 69.6294 224.705 69.2037ZM248.4 27.0641L256.203 56.4342L264.22 27.0641C264.362 26.8513 264.503 26.6385 264.787 26.6385H272.875C273.3 26.6385 273.584 26.9932 273.442 27.4188L261.169 73.0346C261.027 73.3184 260.885 73.4603 260.602 73.4603H251.805C251.592 73.4603 251.379 73.3184 251.308 73.0346L239.035 27.4188C238.964 26.9932 239.248 26.6385 239.674 26.6385H247.832C248.116 26.6385 248.258 26.8513 248.4 27.0641ZM256.061 68.5653L244.214 30.7531C244.001 30.1856 243.221 30.5403 243.434 30.9659L255.21 68.849C255.494 69.9132 256.629 69.9841 256.984 68.849L268.334 30.9659C268.476 30.5403 267.696 30.2565 267.554 30.7531L256.061 68.5653ZM298.697 26C304.799 26 309.055 27.3479 311.751 30.2565C313.879 32.5976 314.872 35.9319 314.872 40.685V59.3428C314.872 64.2378 313.879 67.643 311.751 69.9132C308.984 72.7508 304.799 74.1697 298.697 74.1697C292.384 74.1697 288.269 72.7508 285.573 69.9132C283.516 67.643 282.381 64.2378 282.381 59.3428V40.685C282.381 35.9319 283.516 32.5976 285.573 30.1856C288.34 27.3479 292.526 26 298.697 26ZM305.437 57.2145V43.0261C305.437 36.7832 302.103 35.5062 299.052 35.5062H298.201C293.661 35.5062 291.887 38.4149 291.887 43.0261V57.2145C291.887 63.4574 295.221 64.8053 298.201 64.8053H299.052C303.592 64.8053 305.366 61.7548 305.437 57.2145ZM286.85 41.1816V58.7753C286.85 62.1095 287.701 64.8763 289.688 66.9336C291.532 68.7781 294.37 69.7713 297.846 69.7713H299.691C306.359 69.7713 310.687 65.5148 310.687 58.7753V41.1816C310.687 33.9455 306.856 30.0437 299.691 30.0437H297.846C290.61 30.0437 286.85 33.9455 286.85 41.1816ZM299.691 68.849H297.846C294.512 68.849 292.029 67.9977 290.255 66.2242C288.482 64.4506 287.56 61.9676 287.56 58.7753V41.1816C287.56 34.4421 291.178 30.895 297.846 30.895H299.691C306.43 30.895 309.764 34.3712 309.764 41.1816V58.7753C309.764 61.7548 308.842 64.4506 306.927 66.2951C305.082 67.8558 302.599 68.849 299.691 68.849ZM334.594 35.5062H324.52C324.166 35.5062 323.882 35.2225 323.882 34.8678V27.277C323.882 26.9222 324.166 26.6385 324.52 26.6385H354.103C354.458 26.6385 354.742 26.9222 354.742 27.277V34.8678C354.742 35.2225 354.458 35.5062 354.103 35.5062H344.029V72.8218C344.029 73.1765 343.746 73.4603 343.391 73.4603H335.233C334.878 73.4603 334.594 73.1765 334.594 72.8218V35.5062ZM349.776 30.5403H328.351C327.855 30.5403 327.855 31.4625 328.351 31.4625H338.851V69.0619C338.851 69.5585 339.773 69.5585 339.773 69.0619V31.4625H349.776C350.485 31.4625 350.414 30.5403 349.776 30.5403ZM365.241 73.4603C364.886 73.4603 364.674 73.1765 364.674 72.8218V27.277C364.674 26.9222 364.886 26.6385 365.241 26.6385H389.362C389.716 26.6385 390 26.9222 390 27.277V34.8678C390 35.2225 389.716 35.5062 389.362 35.5062H374.038V45.1544H385.956C386.311 45.1544 386.524 45.4381 386.524 45.7928V53.5255C386.524 53.8802 386.311 54.164 385.956 54.164H374.038V64.5925H389.362C389.716 64.5925 390 64.8763 390 65.231V72.8218C390 73.1765 389.716 73.4603 389.362 73.4603H365.241ZM368.788 31.1078V68.849C368.788 69.2747 369.072 69.4166 369.356 69.4166H385.673C386.311 69.4166 386.169 68.5653 385.673 68.5653H369.711V50.0494H382.764C383.19 50.0494 383.19 49.0562 382.764 49.0562H369.711V31.4625H385.673C386.169 31.4625 386.311 30.5403 385.673 30.5403H369.356C369.072 30.5403 368.788 30.7531 368.788 31.1078Z" fill="#590D82"/>
<path d="M142.678 94.3039L144.907 102.693L147.196 94.3039C147.237 94.2432 147.277 94.1824 147.359 94.1824H149.668C149.79 94.1824 149.871 94.2837 149.831 94.4053L146.325 107.434C146.285 107.515 146.244 107.556 146.163 107.556H143.65C143.59 107.556 143.529 107.515 143.509 107.434L140.003 94.4053C139.983 94.2837 140.064 94.1824 140.185 94.1824H142.516C142.597 94.1824 142.637 94.2432 142.678 94.3039ZM144.866 106.158L141.482 95.3576C141.422 95.1955 141.199 95.2968 141.259 95.4184L144.623 106.239C144.704 106.543 145.028 106.563 145.13 106.239L148.372 95.4184C148.412 95.2968 148.189 95.2158 148.149 95.3576L144.866 106.158ZM159.7 94C161.443 94 162.658 94.385 163.428 95.2158C164.036 95.8844 164.32 96.8368 164.32 98.1944V103.524C164.32 104.922 164.036 105.894 163.428 106.543C162.638 107.353 161.443 107.758 159.7 107.758C157.897 107.758 156.721 107.353 155.951 106.543C155.364 105.894 155.04 104.922 155.04 103.524V98.1944C155.04 96.8368 155.364 95.8844 155.951 95.1955C156.742 94.385 157.937 94 159.7 94ZM161.625 102.916V98.8631C161.625 97.08 160.673 96.7152 159.801 96.7152H159.558C158.261 96.7152 157.755 97.546 157.755 98.8631V102.916C157.755 104.699 158.707 105.084 159.558 105.084H159.801C161.098 105.084 161.605 104.212 161.625 102.916ZM156.316 98.3363V103.361C156.316 104.314 156.559 105.104 157.127 105.692C157.654 106.219 158.464 106.502 159.457 106.502H159.984C161.889 106.502 163.125 105.286 163.125 103.361V98.3363C163.125 96.2694 162.03 95.155 159.984 95.155H159.457C157.39 95.155 156.316 96.2694 156.316 98.3363ZM159.984 106.239H159.457C158.505 106.239 157.795 105.996 157.289 105.489C156.782 104.982 156.519 104.273 156.519 103.361V98.3363C156.519 96.4113 157.552 95.3981 159.457 95.3981H159.984C161.909 95.3981 162.861 96.391 162.861 98.3363V103.361C162.861 104.212 162.598 104.982 162.051 105.509C161.524 105.955 160.815 106.239 159.984 106.239ZM172.609 96.7152H169.732C169.63 96.7152 169.549 96.6342 169.549 96.5329V94.3647C169.549 94.2634 169.63 94.1824 169.732 94.1824H178.181C178.283 94.1824 178.364 94.2634 178.364 94.3647V96.5329C178.364 96.6342 178.283 96.7152 178.181 96.7152H175.304V107.373C175.304 107.475 175.223 107.556 175.122 107.556H172.791C172.69 107.556 172.609 107.475 172.609 107.373V96.7152ZM176.945 95.2968H170.826C170.684 95.2968 170.684 95.5602 170.826 95.5602H173.825V106.3C173.825 106.441 174.088 106.441 174.088 106.3V95.5602H176.945C177.148 95.5602 177.128 95.2968 176.945 95.2968ZM184.019 107.556C183.917 107.556 183.856 107.475 183.856 107.373V94.3647C183.856 94.2634 183.917 94.1824 184.019 94.1824H190.908C191.009 94.1824 191.09 94.2634 191.09 94.3647V96.5329C191.09 96.6342 191.009 96.7152 190.908 96.7152H186.531V99.471H189.935C190.037 99.471 190.097 99.552 190.097 99.6533V101.862C190.097 101.963 190.037 102.044 189.935 102.044H186.531V105.023H190.908C191.009 105.023 191.09 105.104 191.09 105.205V107.373C191.09 107.475 191.009 107.556 190.908 107.556H184.019ZM185.032 95.4589V106.239C185.032 106.36 185.113 106.401 185.194 106.401H189.854C190.037 106.401 189.996 106.158 189.854 106.158H185.295V100.869H189.024C189.145 100.869 189.145 100.585 189.024 100.585H185.295V95.5602H189.854C189.996 95.5602 190.037 95.2968 189.854 95.2968H185.194C185.113 95.2968 185.032 95.3576 185.032 95.4589ZM198.224 107.738C197.272 107.738 196.461 106.928 196.461 105.935C196.461 104.942 197.272 104.172 198.224 104.172C199.217 104.172 200.048 104.942 200.048 105.935C200.048 106.928 199.217 107.738 198.224 107.738ZM198.245 106.543C198.549 106.543 198.792 106.32 198.792 106.016C198.792 105.712 198.549 105.489 198.245 105.489C197.941 105.489 197.718 105.712 197.718 106.016C197.718 106.32 197.941 106.543 198.245 106.543ZM198.245 105.732C198.407 105.732 198.528 105.854 198.528 106.016C198.528 106.198 198.407 106.32 198.245 106.32C198.083 106.32 197.941 106.198 197.941 106.016C197.941 105.854 198.083 105.732 198.245 105.732ZM220.537 99.3494C222.077 100.079 224.083 101.234 224.083 103.321C224.083 103.929 223.981 105.104 223.313 106.097C222.563 107.211 221.388 107.758 219.767 107.758C218.044 107.758 216.038 106.928 215.41 105.043C215.39 104.982 215.41 104.922 215.471 104.881L217.335 103.28C217.416 103.22 217.538 103.22 217.599 103.321C217.639 103.422 217.72 103.584 217.822 103.787C218.126 104.415 218.855 105.043 219.666 105.043C220.294 105.043 221.145 104.699 221.145 103.726C221.145 102.794 219.868 102.267 219.078 101.963C218.166 101.599 217.234 101.133 216.444 100.444C215.613 99.6736 215.208 98.8226 215.208 97.8094C215.208 95.2766 217.538 94 219.747 94C221.489 94 222.786 94.9118 223.637 96.7152C223.678 96.7963 223.637 96.8976 223.576 96.9381L221.773 98.1944C221.692 98.2349 221.651 98.2349 221.57 98.1336C220.881 97.1407 220.273 96.6747 219.463 96.6747C219.037 96.6747 218.044 96.8368 218.044 97.5865C218.044 98.4984 219.726 98.9644 220.537 99.3494ZM216.849 104.942C217.356 105.955 218.754 106.543 219.888 106.543C221.368 106.543 222.563 105.53 222.725 103.99C222.928 102.105 221.449 101.295 219.99 100.565L219.341 100.281C217.842 99.6128 216.748 99.1062 216.748 97.7081C216.748 96.1681 218.166 95.4589 219.564 95.4589C220.841 95.4589 221.509 96.2087 221.854 96.6747C221.975 96.8368 222.178 96.695 222.057 96.5329C221.712 96.1073 220.983 95.2158 219.564 95.2158C217.963 95.2158 216.504 96.006 216.504 97.7081C216.504 99.2278 217.72 99.8154 219.26 100.525L219.888 100.829C221.894 101.781 222.624 102.673 222.462 103.969C222.158 106.036 220.577 106.3 219.888 106.3C218.369 106.3 217.356 105.388 217.052 104.82C216.95 104.719 216.808 104.82 216.849 104.942ZM229.94 107.556C229.839 107.556 229.778 107.475 229.778 107.373V94.3647C229.778 94.2634 229.839 94.1824 229.94 94.1824H236.83C236.931 94.1824 237.012 94.2634 237.012 94.3647V96.5329C237.012 96.6342 236.931 96.7152 236.83 96.7152H232.453V99.471H235.857C235.958 99.471 236.019 99.552 236.019 99.6533V101.862C236.019 101.963 235.958 102.044 235.857 102.044H232.453V105.023H236.83C236.931 105.023 237.012 105.104 237.012 105.205V107.373C237.012 107.475 236.931 107.556 236.83 107.556H229.94ZM230.953 95.4589V106.239C230.953 106.36 231.034 106.401 231.116 106.401H235.776C235.958 106.401 235.918 106.158 235.776 106.158H231.217V100.869H234.945C235.067 100.869 235.067 100.585 234.945 100.585H231.217V95.5602H235.776C235.918 95.5602 235.958 95.2968 235.776 95.2968H231.116C231.034 95.2968 230.953 95.3576 230.953 95.4589ZM243.255 107.556C243.153 107.556 243.092 107.475 243.092 107.373V94.3647C243.092 94.2634 243.153 94.1824 243.255 94.1824H250.144C250.245 94.1824 250.326 94.2634 250.326 94.3647V96.5329C250.326 96.6342 250.245 96.7152 250.144 96.7152H245.767V99.471H249.171C249.273 99.471 249.333 99.552 249.333 99.6533V101.862C249.333 101.963 249.273 102.044 249.171 102.044H245.767V105.023H250.144C250.245 105.023 250.326 105.104 250.326 105.205V107.373C250.326 107.475 250.245 107.556 250.144 107.556H243.255ZM244.268 95.4589V106.239C244.268 106.36 244.349 106.401 244.43 106.401H249.09C249.273 106.401 249.232 106.158 249.09 106.158H244.531V100.869H248.259C248.381 100.869 248.381 100.585 248.259 100.585H244.531V95.5602H249.09C249.232 95.5602 249.273 95.2968 249.09 95.2968H244.43C244.349 95.2968 244.268 95.3576 244.268 95.4589ZM257.46 107.738C256.508 107.738 255.697 106.928 255.697 105.935C255.697 104.942 256.508 104.172 257.46 104.172C258.453 104.172 259.284 104.942 259.284 105.935C259.284 106.928 258.453 107.738 257.46 107.738ZM257.481 106.543C257.784 106.543 258.028 106.32 258.028 106.016C258.028 105.712 257.784 105.489 257.481 105.489C257.177 105.489 256.954 105.712 256.954 106.016C256.954 106.32 257.177 106.543 257.481 106.543ZM257.481 105.732C257.643 105.732 257.764 105.854 257.764 106.016C257.764 106.198 257.643 106.32 257.481 106.32C257.318 106.32 257.177 106.198 257.177 106.016C257.177 105.854 257.318 105.732 257.481 105.732ZM282.812 102.267C282.528 102.855 282.123 103.301 281.556 103.564L283.258 107.313C283.319 107.434 283.238 107.556 283.116 107.556H280.624C280.543 107.556 280.502 107.515 280.482 107.455L278.901 104.01H277.868V107.373C277.868 107.475 277.787 107.556 277.686 107.556H275.355C275.274 107.556 275.214 107.475 275.214 107.373V94.3647C275.214 94.2634 275.274 94.1824 275.355 94.1824H279.57C281.819 94.1824 283.177 95.4589 283.177 97.8297V100.383C283.177 101.092 283.055 101.761 282.812 102.267ZM280.522 99.7547V98.4376C280.522 97.0192 279.996 96.8773 278.456 96.8773H277.868V101.355H278.456C279.732 101.355 280.482 101.335 280.522 99.7547ZM276.693 106.32V102.855H279.611L281.313 106.36C281.353 106.462 281.596 106.421 281.536 106.239L279.834 102.794C281.414 102.571 281.961 101.74 281.961 100.241V97.7081C281.961 95.4792 279.935 95.2968 279.307 95.2968H276.571C276.531 95.2968 276.45 95.3576 276.45 95.4184V106.32C276.45 106.462 276.693 106.462 276.693 106.32ZM281.718 97.7081V100.241C281.718 102.308 280.401 102.591 279.124 102.591H276.693V95.5602H279.307C281.495 95.5602 281.718 97.0394 281.718 97.7081ZM289.581 107.556C289.48 107.556 289.419 107.475 289.419 107.373V94.3647C289.419 94.2634 289.48 94.1824 289.581 94.1824H296.471C296.572 94.1824 296.653 94.2634 296.653 94.3647V96.5329C296.653 96.6342 296.572 96.7152 296.471 96.7152H292.094V99.471H295.498C295.6 99.471 295.66 99.552 295.66 99.6533V101.862C295.66 101.963 295.6 102.044 295.498 102.044H292.094V105.023H296.471C296.572 105.023 296.653 105.104 296.653 105.205V107.373C296.653 107.475 296.572 107.556 296.471 107.556H289.581ZM290.595 95.4589V106.239C290.595 106.36 290.676 106.401 290.757 106.401H295.417C295.6 106.401 295.559 106.158 295.417 106.158H290.858V100.869H294.586C294.708 100.869 294.708 100.585 294.586 100.585H290.858V95.5602H295.417C295.559 95.5602 295.6 95.2968 295.417 95.2968H290.757C290.676 95.2968 290.595 95.3576 290.595 95.4589ZM305.266 94.3039C305.287 94.2432 305.327 94.1824 305.408 94.1824H307.921C308.002 94.1824 308.042 94.2432 308.063 94.3039L311.568 107.333C311.588 107.455 311.507 107.556 311.386 107.556H309.076C309.015 107.556 308.954 107.515 308.934 107.434L308.144 104.597H305.185L304.415 107.434C304.395 107.515 304.355 107.556 304.274 107.556H301.943C301.822 107.556 301.741 107.455 301.761 107.333L305.266 94.3039ZM305.834 102.085H307.516L306.644 99.0252L305.834 102.085ZM308.954 103.28L309.886 106.32C309.927 106.441 310.15 106.421 310.089 106.259L306.847 95.4792C306.786 95.2158 306.442 95.1955 306.381 95.4792L303.24 106.259C303.179 106.401 303.402 106.462 303.463 106.34L304.355 103.28H308.954ZM304.415 103.017L306.624 95.5602L308.873 103.017H304.415ZM323.403 102.875V102.247C323.403 102.146 323.484 102.065 323.586 102.065H325.896C325.997 102.065 326.078 102.146 326.078 102.247V103.524C326.078 106.502 324.477 107.758 321.458 107.758C318.641 107.758 316.798 106.644 316.798 103.524V98.1944C316.798 95.1955 318.439 94 321.458 94C324.315 94 326.078 95.0942 326.078 98.1944V98.6199C326.078 98.7212 325.997 98.8023 325.896 98.8023H323.565C323.464 98.8023 323.383 98.7212 323.383 98.6199V98.2957C323.383 97.1813 322.552 96.7152 321.559 96.7152H321.316C320.647 96.7152 320.202 96.8976 319.898 97.3028C319.614 97.6878 319.513 98.1944 319.513 98.8631V102.875C319.513 104.638 320.506 105.023 321.316 105.023H321.559C322.836 105.023 323.363 104.172 323.403 102.875ZM321.417 95.2563C319.249 95.2563 317.993 96.0263 317.993 98.4984V103.382C317.993 105.631 319.148 106.462 321.417 106.462C323.545 106.462 324.822 105.692 324.822 103.361C324.822 103.199 324.578 103.199 324.578 103.361C324.578 105.408 323.464 106.239 321.417 106.239C319.432 106.239 318.216 105.55 318.216 103.382V98.4984C318.216 96.391 319.209 95.4792 321.417 95.4792C324.295 95.4792 324.396 97.3028 324.396 97.5055C324.396 97.6878 324.68 97.7081 324.68 97.5055C324.68 95.8237 322.978 95.2563 321.417 95.2563ZM334.245 96.7152H331.368C331.267 96.7152 331.186 96.6342 331.186 96.5329V94.3647C331.186 94.2634 331.267 94.1824 331.368 94.1824H339.818C339.919 94.1824 340 94.2634 340 94.3647V96.5329C340 96.6342 339.919 96.7152 339.818 96.7152H336.94V107.373C336.94 107.475 336.859 107.556 336.758 107.556H334.428C334.326 107.556 334.245 107.475 334.245 107.373V96.7152ZM338.582 95.2968H332.462C332.32 95.2968 332.32 95.5602 332.462 95.5602H335.461V106.3C335.461 106.441 335.725 106.441 335.725 106.3V95.5602H338.582C338.784 95.5602 338.764 95.2968 338.582 95.2968Z" fill="#590D82"/>
</g>
<defs>
<clipPath id="clip0_1_4">
<rect width="390" height="118.423" fill="white"/>
</clipPath>
</defs>
</svg>
